<svg width="227" height="42" viewBox="0 0 227 42" fill="none" xmlns="http://www.w3.org/2000/svg">
<g clip-path="url(#clip0)">
<ellipse cx="17.9904" cy="21.3778" rx="15.3298" ry="19.6175" fill="white"/>
<path d="M50.7744 30.9118V11.1978H54.0393V18.9012C55.0187 17.493 56.4063 16.8304 58.2019 16.8304C59.7527 16.8304 61.0587 17.3273 62.0381 18.3213C63.0992 19.3153 63.5889 20.6406 63.5889 22.1316V30.9118H60.4057V23.1256C60.4057 22.2145 60.0792 21.469 59.5079 20.8891C58.9365 20.3093 58.1203 19.978 57.2225 19.978C56.3247 19.978 55.5084 20.3093 54.9371 20.8891C54.3657 21.469 54.0393 22.2145 54.0393 23.1256V30.9118H50.7744Z" fill="#052449"/>
<path d="M72.4043 16.8306C73.9551 16.8306 75.261 17.3276 76.4853 18.3215V17.2447H79.6686V30.9121H76.4853V29.8352C75.261 30.8292 73.8735 31.3262 72.4043 31.3262C70.527 31.3262 68.9762 30.6636 67.6703 29.2554C66.4459 27.8473 65.793 26.1078 65.793 24.037C65.793 21.9662 66.4459 20.2267 67.6703 18.9014C68.9762 17.4932 70.527 16.8306 72.4043 16.8306ZM75.4243 21.3035C74.7713 20.558 73.8735 20.1439 72.894 20.1439C71.8329 20.1439 71.0167 20.558 70.2821 21.3035C69.5475 22.049 69.2211 22.9602 69.2211 24.1198C69.2211 25.2795 69.5475 26.1906 70.2821 26.9361C70.9351 27.6816 71.8329 28.0958 72.894 28.0958C73.8735 28.0958 74.7713 27.6816 75.4243 26.9361C76.1588 26.1906 76.4853 25.1966 76.4853 24.1198C76.4853 22.9602 76.0772 22.049 75.4243 21.3035Z" fill="#052449"/>
<path d="M85.7082 36.876H82.4434V17.2447H85.7082V18.3215C86.9325 17.3276 88.2385 16.8306 89.7893 16.8306C91.6665 16.8306 93.2174 17.4932 94.5233 18.9014C95.7476 20.2267 96.4006 21.9662 96.4006 24.037C96.4006 26.1078 95.7476 27.8473 94.5233 29.2554C93.2174 30.6636 91.6665 31.3262 89.7893 31.3262C88.3201 31.3262 86.9325 30.8292 85.7082 29.8352V36.876ZM91.9114 21.3035C91.2584 20.558 90.3606 20.1439 89.3812 20.1439C88.4017 20.1439 87.5039 20.4752 86.7693 21.3035C86.1163 22.049 85.7082 22.9602 85.7082 24.1198C85.7082 25.2795 86.0347 26.1906 86.7693 26.9361C87.4223 27.6816 88.3201 28.0958 89.2995 28.0958C90.279 28.0958 91.1768 27.6816 91.8298 26.9361C92.5644 26.1906 92.8909 25.1966 92.8909 24.1198C92.9725 22.9602 92.646 22.049 91.9114 21.3035Z" fill="#052449"/>
<path d="M101.869 36.876H98.6045V17.2447H101.869V18.3215C103.094 17.3276 104.4 16.8306 105.95 16.8306C107.828 16.8306 109.378 17.4932 110.684 18.9014C111.909 20.2267 112.562 21.9662 112.562 24.037C112.562 26.1078 111.909 27.8473 110.684 29.2554C109.378 30.6636 107.828 31.3262 105.95 31.3262C104.481 31.3262 103.094 30.8292 101.869 29.8352V36.876ZM108.073 21.3035C107.42 20.558 106.522 20.1439 105.542 20.1439C104.563 20.1439 103.665 20.558 103.012 21.3035C102.359 22.049 101.951 22.9602 101.951 24.1198C101.951 25.2795 102.277 26.1906 103.012 26.9361C103.665 27.6816 104.563 28.0958 105.542 28.0958C106.522 28.0958 107.42 27.6816 108.073 26.9361C108.807 26.1906 109.134 25.1966 109.134 24.1198C109.134 22.9602 108.807 22.049 108.073 21.3035Z" fill="#052449"/>
<path d="M117.867 31.5746L118.193 30.6635L112.97 17.2446H116.316L119.744 26.5218L123.254 17.2446H126.6L120.479 32.7343C119.908 34.1424 119.173 35.2192 118.193 35.8819C117.296 36.5446 116.071 36.8759 114.602 36.8759H114.112V33.7283H114.602C116.316 33.7283 117.296 32.9828 117.867 31.5746Z" fill="#052449"/>
<path d="M35.3475 18.5698L34.4497 17.9072C32.5724 8.71278 26.3692 0.678047 19.0233 0.595215H18.9417C17.799 0.595215 16.7379 0.76088 15.6768 1.09221C15.1871 0.926544 14.6158 0.843712 14.126 0.760879C13.6363 0.678047 13.065 0.678047 12.4936 0.678047C11.5958 0.678047 10.6163 0.843712 9.47364 1.17504C8.82067 1.42354 8.08608 1.67204 7.43311 2.00336C6.12717 2.66602 4.90286 3.49435 3.84179 4.48833C3.18882 5.15099 2.61747 5.89648 2.12774 6.55914C1.22991 7.88446 0.658565 9.29261 0.413701 10.8664C-0.0760249 13.5999 0.495323 16.499 2.04612 19.6467L2.69909 20.972C2.61747 21.8831 2.53585 22.7943 2.53585 23.6226C2.45423 35.0535 9.63688 41.7629 18.6968 41.8457C18.7784 41.8457 18.7784 41.8457 18.8601 41.8457C20.0028 41.8457 21.0638 41.7629 22.1249 41.5144C23.2676 41.7629 24.4919 41.9285 25.6346 41.9285C27.1854 41.9285 28.8178 41.68 30.3686 41.2659C35.1843 39.7749 38.7756 35.799 39.755 30.7462C40.5713 26.0247 38.9388 21.3861 35.3475 18.5698ZM2.86233 19.1497C1.31153 16.002 0.985049 13.3514 1.31153 11.0321C1.88288 13.1857 3.1072 14.5939 3.59692 15.2565C3.67854 15.3394 3.76016 15.2565 3.67854 15.1737C2.29099 12.2746 2.37261 8.79562 2.86233 7.13897C3.35206 6.47631 3.84179 5.81365 4.41313 5.23383C3.76016 8.54712 5.14772 11.9432 5.80069 13.1857C5.80069 13.2686 5.96393 13.1857 5.96393 13.1029C4.82124 7.80163 6.2088 4.9025 7.84122 2.91452C8.49419 2.58319 9.14715 2.33469 9.7185 2.16903C6.78014 5.06816 8.41256 9.62394 8.98391 11.1149C8.98391 11.1978 9.14715 11.1149 9.14715 11.1149C8.33094 5.73082 11.4325 2.50036 13.9628 1.8377C14.8606 1.92053 15.7585 2.16903 16.493 2.41753C12.1671 3.24585 12.412 7.4703 12.5752 8.79562C12.5752 8.87845 12.6569 8.87845 12.7385 8.79562C13.5547 4.07417 16.9828 3.16302 18.452 3.32868C19.4314 3.90851 20.2476 4.57117 20.9006 5.23383C18.9417 4.23984 16.1666 5.97932 15.6768 8.13296C15.6768 8.21579 15.7585 8.21579 15.7585 8.21579C18.5336 5.23382 21.88 6.39348 21.88 6.39348C22.1249 6.89047 22.6146 7.13897 23.1044 7.30463C23.5941 7.4703 24.0838 7.80163 24.247 8.54712C24.6552 9.87244 24.4103 11.2806 24.0838 12.1089C24.0022 12.3574 24.0022 12.6887 24.0838 12.9372C24.7368 15.3394 28.3281 20.6406 24.1654 21.8003C23.8389 21.8831 23.4308 21.8831 23.0227 21.8831C20.166 21.8831 14.5341 20.2265 10.8612 15.8364C10.7796 15.7535 10.698 15.8364 10.698 15.9192C11.1877 17.0788 12.8201 20.3921 17.7174 22.7114C17.8806 22.7943 17.799 22.9599 17.6357 22.9599C16.2482 22.7943 14.6158 22.3801 12.9017 21.5518C10.4531 20.475 8.57581 19.1497 7.18825 17.8243C6.69852 17.3273 6.04555 17.0788 5.39259 17.0788C4.24989 17.2445 3.18882 17.99 2.86233 19.1497ZM23.5125 33.314C22.8595 33.314 22.2065 33.2312 21.5536 33.1483C19.5946 32.817 14.9422 31.4088 13.9628 24.8651C13.8812 24.2853 13.3914 23.8711 12.9017 23.8711C12.412 23.8711 12.0039 24.2024 11.8406 24.6994C10.6163 28.841 11.2693 32.8998 13.6363 36.2131C14.9422 38.0354 16.7379 39.4436 18.7784 40.4376H18.6968C9.80012 40.3547 3.92341 33.6453 4.00503 23.7054C4.00503 21.966 4.24989 20.3093 4.57637 18.5698C4.82124 18.4042 5.14772 18.3213 5.39259 18.3213C5.71907 18.3213 6.12717 18.4042 6.53528 18.8183C8.08608 20.3093 10.045 21.6346 12.4936 22.7114C14.126 23.4569 15.7585 23.9539 17.4725 24.2024H17.5541H17.6357C18.1255 24.2024 18.6152 23.8711 18.6968 23.2913C18.7784 22.8771 18.6968 22.5458 18.3703 22.2145C20.166 22.7943 21.7168 23.0428 22.9411 23.0428C23.5125 23.0428 24.0022 22.9599 24.3287 22.8771C25.4714 22.5458 26.2876 21.966 26.6957 21.0548C27.5935 19.1497 26.5324 16.6647 25.6346 14.5939C25.3081 13.9312 25.0633 13.2686 24.9 12.7716C24.9 12.6887 24.9 12.6059 24.9 12.5231C25.2265 11.5291 25.4714 9.95527 25.0633 8.38145C24.8184 7.4703 24.1654 6.80764 23.2676 6.47631C23.0227 6.39348 22.7779 6.22781 22.6146 5.97932C22.2881 5.39949 21.88 4.98533 21.4719 4.57117C20.819 3.99134 19.9211 3.16302 18.8601 2.50036C18.6152 2.33469 18.3703 2.25186 18.1255 2.0862C18.3703 2.0862 18.6152 2.0862 18.8601 2.0862H18.9417C22.6962 2.0862 26.3692 4.48833 29.2259 8.87845C31.9194 13.0201 33.5518 18.2385 33.5518 23.3741C33.1437 26.2732 32.1643 28.6754 30.5319 30.4149C28.7362 32.2372 26.2876 33.314 23.5125 33.314Z" fill="#052449"/>
<path d="M2.86229 19.1498C1.31149 16.0022 0.985006 13.3516 1.31149 11.0323C1.88284 13.1859 3.10715 14.5941 3.59688 15.2567C3.6785 15.3396 3.76012 15.2567 3.6785 15.1739C2.29094 12.2748 2.37256 8.79581 2.86229 7.13916C3.35202 6.4765 3.84174 5.81384 4.41309 5.23402C3.76012 8.54731 5.14768 11.9434 5.80065 13.1859C5.80065 13.2688 5.96389 13.1859 5.96389 13.1031C4.82119 7.80182 6.20875 4.90269 7.84117 2.91471C8.49414 2.58338 9.14711 2.33488 9.71846 2.16922C6.7801 5.06835 8.41252 9.62413 8.98387 11.1151C8.98387 11.1979 9.14711 11.1151 9.14711 11.1151C8.3309 5.73101 11.4325 2.50055 13.9628 1.83789C14.8606 1.92072 15.7584 2.16922 16.493 2.41772C12.1671 3.24604 12.412 7.47049 12.5752 8.79581C12.5752 8.87864 12.6568 8.87864 12.7384 8.79581C13.5546 4.07436 16.9827 3.16321 18.4519 3.32887C19.4314 3.9087 20.2476 4.57136 20.9005 5.23402C18.9416 4.24003 16.1665 5.97951 15.6768 8.13315C15.6768 8.21598 15.7584 8.21598 15.7584 8.21598C18.5335 5.23402 21.88 6.39367 21.88 6.39367C22.1249 6.89066 22.6146 7.13916 23.1043 7.30483C23.594 7.47049 24.0838 7.80182 24.247 8.54731C24.6551 9.87263 24.4102 11.2808 24.0838 12.1091C24.0021 12.3576 24.0021 12.6889 24.0838 12.9374C24.7367 15.3396 28.3281 20.6408 24.1654 21.8005C23.8389 21.8833 23.4308 21.8833 23.0227 21.8833C20.166 21.8833 14.5341 20.2267 10.8612 15.8366C10.7795 15.7537 10.6979 15.8366 10.6979 15.9194C11.1876 17.079 12.8201 20.3923 17.7173 22.7116C17.8806 22.7945 17.7989 22.9601 17.6357 22.9601C16.2481 22.7945 14.6157 22.3803 12.9017 21.552C10.453 20.4752 8.57576 19.1498 7.18821 17.8245C6.69848 17.3275 6.04551 17.079 5.39254 17.079C4.24985 17.2447 3.18877 17.9902 2.86229 19.1498Z" fill="#00B8EA"/>
<path d="M14.4528 29.2553C13.4734 27.5158 13.1469 25.7763 12.9837 24.948C12.9837 24.7823 12.7388 24.7823 12.7388 24.948C12.1675 26.7703 12.0858 28.5098 12.2491 30.1664C13.0653 30.6634 14.2896 30.0836 14.4528 29.2553Z" fill="#00B8EA"/>
<path d="M19.7585 33.728C18.6974 33.3966 17.7996 32.8997 17.065 32.3198C16.9017 33.8108 15.759 34.8876 13.9634 34.8876C14.698 36.1301 15.759 37.2069 16.9017 38.0353C19.1055 37.5383 20.1666 35.4675 19.7585 33.728Z" fill="#00B8EA"/>
<path d="M28.8994 32.8999C27.6751 33.5626 26.2875 34.0596 24.8183 34.2252C25.8794 36.296 25.7978 39.0295 24.3286 40.9346C26.2059 41.1003 28.0832 40.9346 30.0421 40.3548C30.6951 40.1891 31.2664 39.9406 31.9194 39.6093C32.3275 37.1243 30.6134 34.0596 28.8994 32.8999Z" fill="#00B8EA"/>
<path d="M38.8576 26.9358C37.8781 25.6104 35.6744 25.0306 34.1236 25.8589C33.7154 27.2671 33.2257 28.4268 32.5728 29.5036C34.7765 29.6692 37.1435 31.1602 37.7965 33.6452C38.6943 31.4916 39.1024 29.1722 38.8576 26.9358Z" fill="#00B8EA"/>
<path d="M17.4729 16.8302C16.4119 16.8302 13.2286 16.4989 11.433 13.2684C11.2697 12.9371 11.2697 12.4401 11.433 12.0259C11.7595 11.3632 12.4124 10.4521 13.8 10.3693C15.9221 10.2036 17.9627 11.6117 17.7994 16.4989C17.7994 16.6645 17.6362 16.8302 17.4729 16.8302Z" fill="white"/>
<path d="M16.4934 11.0321C15.7588 10.3694 14.861 10.0381 13.7183 10.1209C12.2491 10.2866 11.5145 11.2806 11.188 11.9432C10.9432 12.4402 10.9432 12.9372 11.188 13.3514C13.0653 16.7475 16.4118 16.996 17.3912 17.0788C17.7177 17.0788 17.9626 16.8303 17.9626 16.499C18.1258 13.9312 17.5545 12.0261 16.4934 11.0321ZM17.4729 16.5818C16.575 16.5818 13.3918 16.3333 11.6778 13.1029C11.5145 12.7715 11.5145 12.4402 11.6778 12.1089C12.0043 11.4462 12.6572 10.7007 13.7999 10.5351C13.8815 10.5351 14.0448 10.5351 14.1264 10.5351C14.208 10.5351 14.2896 10.5351 14.3713 10.5351C13.9632 10.9492 13.7183 11.5291 13.6367 12.1089C13.3918 13.8484 14.5345 15.505 16.2486 15.7535C16.6567 15.8363 17.0648 15.7535 17.4729 15.6707C17.4729 15.9192 17.4729 16.0848 17.4729 16.3333C17.5545 16.499 17.4729 16.5818 17.4729 16.5818Z" fill="#052449"/>
<path d="M23.291 20.4085C23.4957 20.3128 23.5394 19.9658 23.3885 19.6333C23.2377 19.3009 22.9494 19.109 22.7447 19.2047C22.54 19.3004 22.4963 19.6474 22.6472 19.9798C22.798 20.3122 23.0863 20.5042 23.291 20.4085Z" fill="#052449"/>
<path d="M25.4414 19.5575C25.6178 19.5196 25.7003 19.1987 25.6256 18.8406C25.5509 18.4826 25.3474 18.2231 25.171 18.261C24.9946 18.2989 24.9121 18.6198 24.9868 18.9779C25.0615 19.3359 25.265 19.5954 25.4414 19.5575Z" fill="#052449"/>
<path d="M15.7591 13.2685C16.2099 13.2685 16.5753 12.8976 16.5753 12.4401C16.5753 11.9827 16.2099 11.6118 15.7591 11.6118C15.3083 11.6118 14.9429 11.9827 14.9429 12.4401C14.9429 12.8976 15.3083 13.2685 15.7591 13.2685Z" fill="white"/>
<path d="M133.864 16.8304C135.415 16.8304 136.721 17.3273 137.945 18.3213V11.1978H141.128V30.9118H137.945V29.835C136.721 30.829 135.333 31.326 133.864 31.326C131.987 31.326 130.436 30.6634 129.13 29.2552C127.906 27.8471 127.253 26.1076 127.253 24.0368C127.253 21.966 127.906 20.2265 129.13 18.9012C130.436 17.493 131.987 16.8304 133.864 16.8304ZM136.803 21.3033C136.15 20.5578 135.252 20.1436 134.272 20.1436C133.211 20.1436 132.395 20.5578 131.66 21.3033C130.926 22.0488 130.599 22.9599 130.599 24.1196C130.599 25.2793 130.926 26.1904 131.66 26.9359C132.313 27.6814 133.211 28.0956 134.272 28.0956C135.252 28.0956 136.15 27.6814 136.803 26.9359C137.537 26.1904 137.864 25.1964 137.864 24.1196C137.864 22.9599 137.537 22.0488 136.803 21.3033Z" fill="#00B8EA"/>
<path d="M147.169 17.2447V18.9014C148.067 17.4932 149.617 16.8306 151.576 16.8306V20.4752C151.168 20.3095 150.678 20.2267 150.27 20.2267C149.372 20.2267 148.638 20.558 148.067 21.1378C147.495 21.7177 147.169 22.4632 147.169 23.3743V30.9121H143.904V17.2447H147.169Z" fill="#00B8EA"/>
<path d="M158.922 16.8306C160.473 16.8306 161.779 17.3276 163.003 18.3215V17.2447H166.186V30.9121H163.003V29.8352C161.779 30.8292 160.391 31.3262 158.922 31.3262C157.045 31.3262 155.494 30.6636 154.188 29.2554C152.964 27.8473 152.311 26.1078 152.311 24.037C152.311 21.9662 152.964 20.2267 154.188 18.9014C155.494 17.4932 157.045 16.8306 158.922 16.8306ZM161.942 21.3035C161.289 20.558 160.391 20.1439 159.412 20.1439C158.351 20.1439 157.534 20.558 156.8 21.3035C156.147 22.049 155.739 22.9602 155.739 24.1198C155.739 25.2795 156.065 26.1906 156.8 26.9361C157.453 27.6816 158.351 28.0958 159.412 28.0958C160.391 28.0958 161.289 27.6816 161.942 26.9361C162.676 26.1906 163.003 25.1966 163.003 24.1198C163.003 22.9602 162.595 22.049 161.942 21.3035Z" fill="#00B8EA"/>
<path d="M175.083 16.8306C176.634 16.8306 177.94 17.3276 179.164 18.3215V17.2447H182.347V30.5807C182.347 32.4859 181.694 34.0597 180.388 35.385C179.082 36.6275 177.532 37.2902 175.654 37.2902C174.185 37.2902 172.798 36.876 171.573 36.1305C170.349 35.385 169.533 34.391 169.043 33.2314L172.308 32.3202C172.553 32.8172 172.961 33.3142 173.614 33.6455C174.185 33.9769 174.838 34.1425 175.573 34.1425C176.552 34.1425 177.368 33.8112 178.103 33.1485C178.756 32.4859 179.164 31.6576 179.164 30.7464V30.0009C177.94 30.9949 176.552 31.4919 175.083 31.4919C173.206 31.4919 171.655 30.8292 170.349 29.4211C169.125 28.0129 168.472 26.2735 168.472 24.2026C168.472 22.1318 169.125 20.3924 170.349 19.067C171.655 17.4932 173.206 16.8306 175.083 16.8306ZM178.021 21.3035C177.368 20.558 176.471 20.1439 175.491 20.1439C174.43 20.1439 173.614 20.558 172.879 21.3035C172.226 22.049 171.818 22.9602 171.818 24.1198C171.818 25.2795 172.145 26.1906 172.879 26.9361C173.532 27.6816 174.43 28.0958 175.491 28.0958C176.471 28.0958 177.368 27.6816 178.021 26.9361C178.756 26.1906 179.082 25.1966 179.082 24.1198C179.082 22.9602 178.756 22.049 178.021 21.3035Z" fill="#00B8EA"/>
<path d="M186.673 29.2554C185.285 27.8473 184.632 26.1078 184.632 24.037C184.632 21.9662 185.285 20.2267 186.673 18.9014C188.06 17.4932 189.774 16.8306 191.815 16.8306C193.855 16.8306 195.57 17.4932 196.957 18.9014C198.345 20.3095 198.998 21.9662 198.998 24.037C198.998 26.1078 198.345 27.8473 196.957 29.2554C195.57 30.6636 193.855 31.3262 191.815 31.3262C189.774 31.3262 188.06 30.6636 186.673 29.2554ZM191.733 20.1439C190.672 20.1439 189.774 20.558 189.04 21.3035C188.305 22.049 187.979 22.9602 187.979 24.1198C187.979 25.2795 188.305 26.1906 189.04 26.9361C189.774 27.6816 190.672 28.0958 191.733 28.0958C192.794 28.0958 193.692 27.6816 194.427 26.9361C195.161 26.1906 195.488 25.2795 195.488 24.1198C195.488 22.9602 195.161 22.049 194.427 21.3035C193.692 20.558 192.876 20.1439 191.733 20.1439Z" fill="#00B8EA"/>
<path d="M201.202 30.9121V17.2447H204.467V18.9014C205.446 17.4932 206.834 16.8306 208.548 16.8306C210.098 16.8306 211.323 17.3276 212.302 18.3215C213.282 19.3155 213.853 20.6409 213.853 22.1318V30.9121H210.588V23.1258C210.588 22.2147 210.262 21.4692 209.69 20.8893C209.119 20.3095 208.384 19.9782 207.486 19.9782C206.589 19.9782 205.854 20.3095 205.283 20.8893C204.711 21.4692 204.385 22.2147 204.385 23.1258V30.9121H201.202Z" fill="#00B8EA"/>
<path d="M226.504 20.5578L223.484 21.0548C223.158 20.1437 222.423 19.7295 221.117 19.7295C220.546 19.7295 220.138 19.8124 219.729 20.0609C219.403 20.3093 219.158 20.5578 219.158 20.8892C219.158 21.3862 219.566 21.7175 220.382 21.966L223.158 22.8772C224.382 23.2913 225.28 23.8711 225.851 24.5338C226.422 25.1965 226.667 26.0248 226.667 27.0188C226.667 28.4269 226.178 29.5037 225.198 30.1664C224.219 30.9119 222.913 31.2432 221.28 31.2432C219.648 31.2432 218.423 30.9119 217.444 30.1664C216.465 29.4209 215.893 28.5097 215.73 27.1844L218.75 26.7703C218.832 27.2673 219.158 27.6814 219.648 27.9299C220.138 28.1784 220.709 28.3441 221.443 28.3441C222.096 28.3441 222.586 28.2613 222.994 28.0128C223.402 27.7643 223.566 27.4329 223.566 27.0188C223.566 26.4389 223.076 26.0248 222.096 25.6935L219.321 24.7823C218.179 24.3681 217.362 23.8711 216.873 23.2913C216.383 22.7115 216.138 21.8832 216.138 20.972C216.138 19.5639 216.628 18.5699 217.526 17.8244C218.505 17.0789 219.729 16.7476 221.362 16.7476C222.831 16.7476 223.974 17.0789 224.872 17.7415C225.769 18.487 226.341 19.3982 226.504 20.5578Z" fill="#00B8EA"/>
</g>
<defs>
<clipPath id="clip0">
<rect width="226.498" height="41.3333" fill="white" transform="translate(0.250977 0.595215)"/>
</clipPath>
</defs>
</svg>
